<svg width="15" height="15" viewBox="0 0 18 18" fill="none" xmlns="http://www.w3.org/2000/svg">
<path d="M16.0802 8.29354L9.18772 15.186C8.34333 16.0304 7.19811 16.5048 6.00397 16.5048C4.80983 16.5048 3.6646 16.0304 2.82022 15.186C1.97583 14.3417 1.50146 13.1964 1.50146 12.0023C1.50146 10.8082 1.97583 9.66293 2.82022 8.81854L9.71272 1.92604C10.2756 1.36312 11.0391 1.04687 11.8352 1.04688C12.6313 1.04688 13.3948 1.36312 13.9577 1.92604C14.5206 2.48897 14.8369 3.25245 14.8369 4.04854C14.8369 4.84463 14.5206 5.60812 13.9577 6.17104L7.05772 13.0635C6.77626 13.345 6.39451 13.5031 5.99647 13.5031C5.59842 13.5031 5.21668 13.345 4.93522 13.0635C4.65376 12.7821 4.49563 12.4003 4.49563 12.0023C4.49563 11.6042 4.65376 11.2225 4.93522 10.941L11.3027 4.58104" stroke="black" stroke-width="1.5" stroke-linecap="round" stroke-linejoin="round"/>
</svg>
